# Blender 3.4.1
# www.blender.org
mtllib fence.mtl
o Fence
v -0.500000 -0.205000 0.062500
v -0.875000 -0.205000 0.062500
v -0.875000 -0.205000 -0.062500
v -0.500000 -0.205000 -0.062500
v -0.875000 -0.017501 -0.062500
v -0.500000 -0.017501 -0.062500
v -0.875000 -0.017501 0.062500
v -0.500000 -0.017501 0.062500
v -0.500000 0.170000 0.062500
v -0.875000 0.170000 0.062500
v -0.875000 0.170000 -0.062500
v -0.500000 0.170000 -0.062500
v -0.875000 0.357500 -0.062499
v -0.500000 0.357500 -0.062499
v -0.875000 0.357500 0.062500
v -0.500000 0.357500 0.062500
v -0.125000 0.420000 0.125000
v -0.125000 0.420000 -0.125000
v -0.125000 -0.580000 -0.125000
v -0.125000 -0.580000 0.125000
v 0.125000 -0.580000 0.125000
v 0.125000 -0.580000 -0.125000
v 0.125000 0.420000 -0.125000
v 0.125000 0.420000 0.125000
v -0.125000 -0.205000 0.062500
v -0.500000 -0.205000 0.062500
v -0.500000 -0.205000 -0.062500
v -0.125000 -0.205000 -0.062500
v -0.500000 -0.017501 -0.062500
v -0.125000 -0.017501 -0.062500
v -0.500000 -0.017501 0.062500
v -0.125000 -0.017501 0.062500
v -0.125000 0.170000 0.062500
v -0.500000 0.170000 0.062500
v -0.500000 0.170000 -0.062500
v -0.125000 0.170000 -0.062500
v -0.500000 0.357500 -0.062499
v -0.125000 0.357500 -0.062499
v -0.500000 0.357500 0.062500
v -0.125000 0.357500 0.062500
vn -0.0000 -1.0000 -0.0000
vn -0.0000 -0.0000 -1.0000
vn -0.0000 1.0000 -0.0000
vn -0.0000 -0.0000 1.0000
vn -1.0000 -0.0000 -0.0000
vn 1.0000 -0.0000 -0.0000
vt 0.312500 0.964844
vt 0.312500 0.960938
vt 0.289062 0.964844
vt 0.289062 0.960938
vt 0.289062 0.972656
vt 0.312500 0.960938
vt 0.312500 0.972656
vt 0.289062 0.960938
vt 0.312500 0.972656
vt 0.289062 0.972656
vt 0.289062 0.972656
vt 0.312500 0.972656
vt 0.289062 0.964844
vt 0.289062 0.972656
vt 0.312500 0.964844
vt 0.312500 0.972656
vt 0.312500 0.964844
vt 0.312500 0.984375
vt 0.289062 0.964844
vt 0.289062 0.984375
vt 0.289062 0.972656
vt 0.312500 0.984375
vt 0.312500 0.972656
vt 0.289062 0.984375
vt 0.312500 0.996094
vt 0.289062 0.972656
vt 0.289062 0.996094
vt 0.312500 0.972656
vt 0.289062 0.964844
vt 0.289062 0.996094
vt 0.312500 0.964844
vt 0.312500 0.996094
vt 0.289062 1.000000
vt 0.273438 0.960938
vt 0.273438 1.000000
vt 0.273438 1.000000
vt 0.289062 1.000000
vt 0.273438 0.976562
vt 0.273438 0.937500
vt 0.273438 0.976562
vt 0.289062 0.937500
vt 0.289062 0.937500
vt 0.273438 0.960938
vt 0.273438 0.937500
vt 0.289062 0.960938
vt 0.273438 0.937500
vt 0.289062 0.937500
vt 0.289062 0.976562
vt 0.273438 0.937500
vt 0.289062 0.937500
vt 0.273438 1.000000
vt 0.289062 1.000000
vt 0.289062 0.976562
vt 0.273438 1.000000
vt 0.289062 0.960938
vt 0.289062 1.000000
vt 0.273438 0.964844
vt 0.273438 0.960938
vt 0.250000 0.964844
vt 0.250000 0.960938
vt 0.250000 0.972656
vt 0.273438 0.960938
vt 0.273438 0.972656
vt 0.250000 0.960938
vt 0.273438 0.972656
vt 0.250000 0.972656
vt 0.250000 0.972656
vt 0.273438 0.972656
vt 0.250000 0.964844
vt 0.250000 0.972656
vt 0.273438 0.964844
vt 0.273438 0.972656
vt 0.273438 0.964844
vt 0.273438 0.984375
vt 0.250000 0.964844
vt 0.250000 0.984375
vt 0.250000 0.972656
vt 0.273438 0.984375
vt 0.273438 0.972656
vt 0.250000 0.984375
vt 0.273438 0.996094
vt 0.250000 0.972656
vt 0.250000 0.996094
vt 0.273438 0.972656
vt 0.250000 0.964844
vt 0.250000 0.996094
vt 0.273438 0.964844
vt 0.273438 0.996094
s 0
usemtl Terrain
f 1/1/1 2/3/1 3/5/1 4/7/1
f 5/9/2 6/11/2 4/8/2 3/6/2
f 6/12/3 5/10/3 7/13/3 8/15/3
f 8/16/4 7/14/4 2/4/4 1/2/4
f 9/17/1 10/19/1 11/21/1 12/23/1
f 13/25/2 14/27/2 12/24/2 11/22/2
f 14/28/3 13/26/3 15/29/3 16/31/3
f 16/32/4 15/30/4 10/20/4 9/18/4
f 17/33/5 18/36/5 19/39/5 20/42/5
f 21/45/1 20/43/1 19/40/1 22/48/1
f 18/37/2 23/51/2 22/49/2 19/41/2
f 23/52/6 24/54/6 21/46/6 22/50/6
f 23/53/3 18/38/3 17/34/3 24/55/3
f 24/56/4 17/35/4 20/44/4 21/47/4
f 25/57/1 26/59/1 27/61/1 28/63/1
f 29/65/2 30/67/2 28/64/2 27/62/2
f 30/68/3 29/66/3 31/69/3 32/71/3
f 32/72/4 31/70/4 26/60/4 25/58/4
f 33/73/1 34/75/1 35/77/1 36/79/1
f 37/81/2 38/83/2 36/80/2 35/78/2
f 38/84/3 37/82/3 39/85/3 40/87/3
f 40/88/4 39/86/4 34/76/4 33/74/4
