# Blender 3.4.1
# www.blender.org
mtllib slime.mtl
o Slime_Block
v 0.500000 -0.500000 -0.500000
v 0.500000 -0.500000 0.500000
v -0.500000 -0.500000 0.500000
v -0.500000 -0.500000 -0.500000
v 0.500000 0.500000 -0.500000
v 0.500000 0.500000 0.500000
v -0.500000 0.500000 0.500000
v -0.500000 0.500000 -0.500000
v 0.312500 -0.312500 -0.312500
v 0.312500 -0.312500 0.312500
v -0.312500 -0.312500 0.312500
v -0.312500 -0.312500 -0.312500
v 0.312500 0.312500 -0.312500
v 0.312500 0.312500 0.312500
v -0.312500 0.312500 0.312500
v -0.312500 0.312500 -0.312500
v 0.500000 -0.250000 -0.500000
v 0.500000 0.000000 -0.500000
v 0.500000 0.250000 -0.500000
v 0.500000 -0.250000 0.500000
v 0.500000 0.000000 0.500000
v 0.500000 0.250000 0.500000
v -0.500000 -0.250000 0.500000
v -0.500000 0.000000 0.500000
v -0.500000 0.250000 0.500000
v -0.500000 -0.250000 -0.500000
v -0.500000 0.000000 -0.500000
v -0.500000 0.250000 -0.500000
v 0.500000 -0.500000 -0.500000
v 0.500000 -0.500000 -0.500000
v 0.500000 -0.500000 0.500000
v 0.500000 -0.500000 0.500000
v -0.500000 -0.500000 -0.500000
v -0.500000 -0.500000 -0.500000
v 0.500000 0.250000 -0.500000
v 0.500000 0.500000 -0.500000
v 0.500000 0.500000 -0.500000
v -0.500000 -0.500000 0.500000
v -0.500000 -0.500000 0.500000
v 0.500000 0.250000 0.500000
v 0.500000 0.500000 0.500000
v 0.500000 0.500000 0.500000
v -0.500000 0.250000 0.500000
v -0.500000 0.500000 0.500000
v -0.500000 0.500000 0.500000
v -0.500000 0.250000 -0.500000
v -0.500000 0.500000 -0.500000
v -0.500000 0.500000 -0.500000
v 0.312500 -0.312500 -0.312500
v 0.312500 -0.312500 -0.312500
v 0.312500 -0.312500 0.312500
v 0.312500 -0.312500 0.312500
v -0.312500 -0.312500 -0.312500
v -0.312500 -0.312500 -0.312500
v 0.312500 0.312500 -0.312500
v 0.312500 0.312500 -0.312500
v -0.312500 -0.312500 0.312500
v -0.312500 -0.312500 0.312500
v 0.312500 0.312500 0.312500
v 0.312500 0.312500 0.312500
v -0.312500 0.312500 0.312500
v -0.312500 0.312500 0.312500
v -0.312500 0.312500 -0.312500
v -0.312500 0.312500 -0.312500
v 0.500000 -0.250000 -0.500000
v 0.500000 0.000000 -0.500000
v 0.500000 -0.250000 0.500000
v 0.500000 0.000000 0.500000
v -0.500000 -0.250000 0.500000
v -0.500000 0.000000 0.500000
v -0.500000 -0.250000 -0.500000
v -0.500000 0.000000 -0.500000
vn -0.0000 -1.0000 -0.0000
vn -0.0000 1.0000 -0.0000
vn 1.0000 -0.0000 -0.0000
vn -0.0000 -0.0000 1.0000
vn -1.0000 -0.0000 -0.0000
vn -0.0000 -0.0000 -1.0000
vt 0.750000 0.875000
vt 0.750000 0.875000
vt 0.750000 0.875000
vt 0.687500 0.875000
vt 0.687500 0.937500
vt 0.750000 0.937500
vt 0.750000 0.937500
vt 0.750000 0.937500
vt 0.687500 0.875000
vt 0.750000 0.875000
vt 0.750000 0.875000
vt 0.750000 0.875000
vt 0.687500 0.937500
vt 0.750000 0.937500
vt 0.750000 0.937500
vt 0.750000 0.937500
vt 0.750000 0.890625
vt 0.687500 0.906250
vt 0.687500 0.921875
vt 0.750000 0.890625
vt 0.750000 0.906250
vt 0.750000 0.921875
vt 0.750000 0.890625
vt 0.750000 0.906250
vt 0.750000 0.921875
vt 0.687500 0.890625
vt 0.750000 0.906250
vt 0.750000 0.921875
vt 0.750000 0.937500
vt 0.687500 0.875000
vt 0.687500 0.937500
vt 0.687500 0.875000
vt 0.750000 0.875000
vt 0.750000 0.875000
vt 0.750000 0.921875
vt 0.750000 0.937500
vt 0.750000 0.875000
vt 0.687500 0.875000
vt 0.687500 0.875000
vt 0.687500 0.921875
vt 0.687500 0.937500
vt 0.687500 0.875000
vt 0.687500 0.921875
vt 0.687500 0.937500
vt 0.687500 0.937500
vt 0.687500 0.921875
vt 0.687500 0.937500
vt 0.750000 0.937500
vt 0.750000 0.937500
vt 0.750000 0.875000
vt 0.687500 0.937500
vt 0.687500 0.875000
vt 0.750000 0.875000
vt 0.687500 0.875000
vt 0.750000 0.937500
vt 0.750000 0.875000
vt 0.687500 0.875000
vt 0.687500 0.875000
vt 0.687500 0.937500
vt 0.687500 0.875000
vt 0.687500 0.937500
vt 0.687500 0.937500
vt 0.687500 0.937500
vt 0.750000 0.937500
vt 0.687500 0.890625
vt 0.750000 0.906250
vt 0.687500 0.890625
vt 0.687500 0.906250
vt 0.687500 0.890625
vt 0.687500 0.906250
vt 0.750000 0.890625
vt 0.687500 0.906250
s 1
usemtl TerrainV2-Transparent
f 29/29/1 31/31/1 38/38/1 33/33/1
f 37/37/2 48/48/2 45/45/2 42/42/2
f 35/35/3 36/36/3 41/41/3 40/40/3
f 22/22/4 6/6/4 44/44/4 43/43/4
f 25/25/5 7/7/5 47/47/5 46/46/5
f 65/65/6 30/30/6 34/34/6 71/71/6
f 49/49/1 51/51/1 57/57/1 53/53/1
f 56/56/2 64/64/2 62/62/2 60/60/2
f 50/50/3 55/55/3 59/59/3 52/52/3
f 10/10/4 14/14/4 61/61/4 58/58/4
f 11/11/5 15/15/5 63/63/5 54/54/5
f 13/13/6 9/9/6 12/12/6 16/16/6
f 1/1/3 17/17/3 67/67/3 32/32/3
f 17/17/3 66/66/3 68/68/3 67/67/3
f 66/66/3 35/35/3 40/40/3 68/68/3
f 2/2/4 20/20/4 69/69/4 39/39/4
f 20/20/4 21/21/4 70/70/4 69/69/4
f 21/21/4 22/22/4 43/43/4 70/70/4
f 3/3/5 23/23/5 26/26/5 4/4/5
f 23/23/5 24/24/5 72/72/5 26/26/5
f 24/24/5 25/25/5 46/46/5 72/72/5
f 5/5/6 19/19/6 28/28/6 8/8/6
f 19/19/6 18/18/6 27/27/6 28/28/6
f 18/18/6 65/65/6 71/71/6 27/27/6
