# Blender 3.4.1
# www.blender.org
mtllib column.mtl
o Fencepost
v -0.125000 0.500000 0.125000
v -0.125000 0.500000 -0.125000
v -0.125000 -0.500000 -0.125000
v -0.125000 -0.500000 0.125000
v 0.125000 -0.500000 0.125000
v 0.125000 -0.500000 -0.125000
v 0.125000 0.500000 -0.125000
v 0.125000 0.500000 0.125000
vn -1.0000 -0.0000 -0.0000
vn -0.0000 -1.0000 -0.0000
vn -0.0000 -0.0000 -1.0000
vn 1.0000 -0.0000 -0.0000
vn -0.0000 1.0000 -0.0000
vn -0.0000 -0.0000 1.0000
vt 0.289062 1.000000
vt 0.273438 0.960938
vt 0.273438 1.000000
vt 0.273438 1.000000
vt 0.289062 1.000000
vt 0.273438 0.976562
vt 0.273438 0.937500
vt 0.273438 0.976562
vt 0.289062 0.937500
vt 0.289062 0.937500
vt 0.273438 0.960938
vt 0.273438 0.937500
vt 0.289062 0.960938
vt 0.273438 0.937500
vt 0.289062 0.937500
vt 0.289062 0.976562
vt 0.273438 0.937500
vt 0.289062 0.937500
vt 0.273438 1.000000
vt 0.289062 1.000000
vt 0.289062 0.976562
vt 0.273438 1.000000
vt 0.289062 0.960938
vt 0.289062 1.000000
s 0
usemtl Terrain
f 1/1/1 2/4/1 3/7/1 4/10/1
f 5/13/2 4/11/2 3/8/2 6/16/2
f 2/5/3 7/19/3 6/17/3 3/9/3
f 7/20/4 8/22/4 5/14/4 6/18/4
f 1/2/5 8/23/5 7/21/5 2/6/5
f 8/24/6 1/3/6 4/12/6 5/15/6
