# Blender 3.4.1
# www.blender.org
mtllib glowStone.mtl
o GlowStone
v 0.500000 -0.500000 -0.500000
v 0.500000 -0.500000 0.500000
v -0.500000 -0.500000 0.500000
v -0.500000 -0.500000 -0.500000
v 0.500000 0.500000 -0.500000
v 0.500000 0.500000 0.500000
v -0.500000 0.500000 0.500000
v -0.500000 0.500000 -0.500000
vn -0.0000 -1.0000 -0.0000
vn -0.0000 1.0000 -0.0000
vn 1.0000 -0.0000 -0.0000
vn -0.0000 -0.0000 1.0000
vn -1.0000 -0.0000 -0.0000
vn -0.0000 -0.0000 -1.0000
vt 0.625000 0.625000
vt 0.625000 0.562500
vt 0.562500 0.562500
vt 0.562500 0.625000
vt 0.562500 0.562500
vt 0.625000 0.562500
vt 0.562500 0.562500
vt 0.625000 0.562500
vt 0.562500 0.562500
vt 0.625000 0.562500
vt 0.625000 0.562500
vt 0.625000 0.625000
vt 0.562500 0.625000
vt 0.562500 0.562500
vt 0.562500 0.625000
vt 0.625000 0.625000
vt 0.562500 0.625000
vt 0.625000 0.625000
vt 0.562500 0.625000
vt 0.625000 0.625000
s 0
usemtl Glowstone
f 1/1/1 2/4/1 3/7/1 4/10/1
f 5/11/2 8/20/2 7/17/2 6/14/2
f 1/2/3 5/12/3 6/15/3 2/5/3
f 2/6/4 6/16/4 7/17/4 3/7/4
f 3/8/5 7/18/5 8/19/5 4/9/5
f 5/13/6 1/3/6 4/10/6 8/20/6
